# xmcd
#
# Track frame offsets:
#	150
#	11696
#	25916
#	33866
#	51378
#	60578
#	76649
#	91326
#	107301
#	125731
#	134132
#	146304
#
# Disc length: 2091 seconds
#
# Revision: 0
# Processed by: cddbd v1.5.1PL0 Copyright (c) Steve Scherf et al.
# Submitted via: EasyCDDAExtractor 4.6.9.1
#
DISCID=9708290c
DTITLE=Josh Crowe - Sincerely
DYEAR=2004
DGENRE=Bluegrass
TTITLE0=I Haven't Got The Right To Love You
TTITLE1=Born To Lose
TTITLE2=Air Mail Special On The Fly
TTITLE3=Local Flowers
TTITLE4=I Might Take You Back Again
TTITLE5=Into These Hills
TTITLE6=Baby Blue Eyes
TTITLE7=I'm A Man Of Constant Sorrow
TTITLE8=Country Hall Of Fame
TTITLE9=It Looks Like The Sun Is Gonna Shine
TTITLE10=Give Me Your Hand
TTITLE11=Wildwood Flower (inst.)
EXTD=
EXTT0=
EXTT1=
EXTT2=
EXTT3=
EXTT4=
EXTT5=
EXTT6=
EXTT7=
EXTT8=
EXTT9=
EXTT10=
EXTT11=
PLAYORDER=
